<svg version="1.1" xmlns="http://www.w3.org/2000/svg" xmlns:xlink="http://www.w3.org/1999/xlink" width="561" height="538"><defs><clipPath id="lZuvWpNgZGSK"><path fill="none" stroke="none" d=" M 0 0 L 561 0 L 561 538 L 0 538 L 0 0 Z"/></clipPath></defs><g transform="scale(1,1)" clip-path="url(#lZuvWpNgZGSK)"><g><rect fill="rgb(255,255,255)" stroke="none" x="0" y="0" width="561" height="538" fill-opacity="1"/><path fill="none" stroke="rgb(180,179,186)" paint-order="fill stroke markers" d=" M 21.5 0.5 L 21.5 538.5 M 21.5 0.5 L 21.5 538.5 M 47.5 0.5 L 47.5 538.5 M 72.5 0.5 L 72.5 538.5 M 98.5 0.5 L 98.5 538.5 M 124.5 0.5 L 124.5 538.5 M 149.5 0.5 L 149.5 538.5 M 175.5 0.5 L 175.5 538.5 M 200.5 0.5 L 200.5 538.5 M 226.5 0.5 L 226.5 538.5 M 252.5 0.5 L 252.5 538.5 M 303.5 0.5 L 303.5 538.5 M 328.5 0.5 L 328.5 538.5 M 354.5 0.5 L 354.5 538.5 M 379.5 0.5 L 379.5 538.5 M 405.5 0.5 L 405.5 538.5 M 431.5 0.5 L 431.5 538.5 M 456.5 0.5 L 456.5 538.5 M 482.5 0.5 L 482.5 538.5 M 507.5 0.5 L 507.5 538.5 M 533.5 0.5 L 533.5 538.5 M 559.5 0.5 L 559.5 538.5" stroke-opacity="1" stroke-linecap="round" stroke-linejoin="round" stroke-miterlimit="10"/><path fill="none" stroke="rgb(180,179,186)" paint-order="fill stroke markers" d="" stroke-opacity="0.23529411764705882" stroke-linecap="round" stroke-linejoin="round" stroke-miterlimit="10"/><path fill="none" stroke="rgb(180,179,186)" paint-order="fill stroke markers" d=" M 0.5 14.5 L 561.5 14.5 M 0.5 14.5 L 561.5 14.5 M 0.5 39.5 L 561.5 39.5 M 0.5 65.5 L 561.5 65.5 M 0.5 90.5 L 561.5 90.5 M 0.5 116.5 L 561.5 116.5 M 0.5 142.5 L 561.5 142.5 M 0.5 167.5 L 561.5 167.5 M 0.5 193.5 L 561.5 193.5 M 0.5 218.5 L 561.5 218.5 M 0.5 244.5 L 561.5 244.5 M 0.5 295.5 L 561.5 295.5 M 0.5 321.5 L 561.5 321.5 M 0.5 346.5 L 561.5 346.5 M 0.5 372.5 L 561.5 372.5 M 0.5 398.5 L 561.5 398.5 M 0.5 423.5 L 561.5 423.5 M 0.5 449.5 L 561.5 449.5 M 0.5 474.5 L 561.5 474.5 M 0.5 500.5 L 561.5 500.5 M 0.5 526.5 L 561.5 526.5" stroke-opacity="1" stroke-linecap="round" stroke-linejoin="round" stroke-miterlimit="10"/><path fill="none" stroke="rgb(180,179,186)" paint-order="fill stroke markers" d="" stroke-opacity="0.23529411764705882" stroke-linecap="round" stroke-linejoin="round" stroke-miterlimit="10"/><path fill="none" stroke="rgb(28,28,31)" paint-order="fill stroke markers" d=" M 277.5 2.5 L 277.5 538.5" stroke-opacity="1" stroke-miterlimit="10"/><path fill="none" stroke="rgb(28,28,31)" paint-order="fill stroke markers" d=" M 277.5 1.5 L 270.5 8.5" stroke-opacity="1" stroke-miterlimit="10"/><path fill="none" stroke="rgb(28,28,31)" paint-order="fill stroke markers" d=" M 277.5 1.5 L 284.5 8.5" stroke-opacity="1" stroke-miterlimit="10"/><path fill="none" stroke="rgb(28,28,31)" paint-order="fill stroke markers" d=" M 0.5 270.5 L 559.5 270.5" stroke-opacity="1" stroke-miterlimit="10"/><path fill="none" stroke="rgb(28,28,31)" paint-order="fill stroke markers" d=" M 560.5 270.5 L 553.5 263.5" stroke-opacity="1" stroke-miterlimit="10"/><path fill="none" stroke="rgb(28,28,31)" paint-order="fill stroke markers" d=" M 560.5 270.5 L 553.5 277.5" stroke-opacity="1" stroke-miterlimit="10"/><text fill="rgb(28,28,31)" stroke="none" font-family="geogebra-sans-serif, sans-serif" font-size="21px" font-style="normal" font-weight="normal" text-decoration="normal" x="6" y="295" text-anchor="start" dominant-baseline="alphabetic" fill-opacity="1">–10</text><path fill="none" stroke="rgb(28,28,31)" paint-order="fill stroke markers" d=" M 21.5 270.5 L 21.5 273.5" stroke-opacity="1" stroke-miterlimit="10"/><text fill="rgb(28,28,31)" stroke="none" font-family="geogebra-sans-serif, sans-serif" font-size="21px" font-style="normal" font-weight="normal" text-decoration="normal" x="63" y="295" text-anchor="start" dominant-baseline="alphabetic" fill-opacity="1">–8</text><path fill="none" stroke="rgb(28,28,31)" paint-order="fill stroke markers" d=" M 72.5 270.5 L 72.5 273.5" stroke-opacity="1" stroke-miterlimit="10"/><text fill="rgb(28,28,31)" stroke="none" font-family="geogebra-sans-serif, sans-serif" font-size="21px" font-style="normal" font-weight="normal" text-decoration="normal" x="114" y="295" text-anchor="start" dominant-baseline="alphabetic" fill-opacity="1">–6</text><path fill="none" stroke="rgb(28,28,31)" paint-order="fill stroke markers" d=" M 124.5 270.5 L 124.5 273.5" stroke-opacity="1" stroke-miterlimit="10"/><text fill="rgb(28,28,31)" stroke="none" font-family="geogebra-sans-serif, sans-serif" font-size="21px" font-style="normal" font-weight="normal" text-decoration="normal" x="165" y="295" text-anchor="start" dominant-baseline="alphabetic" fill-opacity="1">–4</text><path fill="none" stroke="rgb(28,28,31)" paint-order="fill stroke markers" d=" M 175.5 270.5 L 175.5 273.5" stroke-opacity="1" stroke-miterlimit="10"/><text fill="rgb(28,28,31)" stroke="none" font-family="geogebra-sans-serif, sans-serif" font-size="21px" font-style="normal" font-weight="normal" text-decoration="normal" x="216" y="295" text-anchor="start" dominant-baseline="alphabetic" fill-opacity="1">–2</text><path fill="none" stroke="rgb(28,28,31)" paint-order="fill stroke markers" d=" M 226.5 270.5 L 226.5 273.5" stroke-opacity="1" stroke-miterlimit="10"/><path fill="none" stroke="rgb(28,28,31)" paint-order="fill stroke markers" d=" M 277.5 270.5 L 277.5 273.5" stroke-opacity="1" stroke-miterlimit="10"/><text fill="rgb(28,28,31)" stroke="none" font-family="geogebra-sans-serif, sans-serif" font-size="21px" font-style="normal" font-weight="normal" text-decoration="normal" x="324" y="295" text-anchor="start" dominant-baseline="alphabetic" fill-opacity="1">2</text><path fill="none" stroke="rgb(28,28,31)" paint-order="fill stroke markers" d=" M 328.5 270.5 L 328.5 273.5" stroke-opacity="1" stroke-miterlimit="10"/><text fill="rgb(28,28,31)" stroke="none" font-family="geogebra-sans-serif, sans-serif" font-size="21px" font-style="normal" font-weight="normal" text-decoration="normal" x="375" y="295" text-anchor="start" dominant-baseline="alphabetic" fill-opacity="1">4</text><path fill="none" stroke="rgb(28,28,31)" paint-order="fill stroke markers" d=" M 379.5 270.5 L 379.5 273.5" stroke-opacity="1" stroke-miterlimit="10"/><text fill="rgb(28,28,31)" stroke="none" font-family="geogebra-sans-serif, sans-serif" font-size="21px" font-style="normal" font-weight="normal" text-decoration="normal" x="426" y="295" text-anchor="start" dominant-baseline="alphabetic" fill-opacity="1">6</text><path fill="none" stroke="rgb(28,28,31)" paint-order="fill stroke markers" d=" M 431.5 270.5 L 431.5 273.5" stroke-opacity="1" stroke-miterlimit="10"/><text fill="rgb(28,28,31)" stroke="none" font-family="geogebra-sans-serif, sans-serif" font-size="21px" font-style="normal" font-weight="normal" text-decoration="normal" x="478" y="295" text-anchor="start" dominant-baseline="alphabetic" fill-opacity="1">8</text><path fill="none" stroke="rgb(28,28,31)" paint-order="fill stroke markers" d=" M 482.5 270.5 L 482.5 273.5" stroke-opacity="1" stroke-miterlimit="10"/><text fill="rgb(28,28,31)" stroke="none" font-family="geogebra-sans-serif, sans-serif" font-size="21px" font-style="normal" font-weight="normal" text-decoration="normal" x="524" y="295" text-anchor="start" dominant-baseline="alphabetic" fill-opacity="1">10</text><path fill="none" stroke="rgb(28,28,31)" paint-order="fill stroke markers" d=" M 533.5 270.5 L 533.5 273.5" stroke-opacity="1" stroke-miterlimit="10"/><path fill="none" stroke="rgb(28,28,31)" paint-order="fill stroke markers" d=" M 274.5 526.5 L 277.5 526.5" stroke-opacity="1" stroke-miterlimit="10"/><path fill="none" stroke="rgb(28,28,31)" paint-order="fill stroke markers" d=" M 274.5 474.5 L 277.5 474.5" stroke-opacity="1" stroke-miterlimit="10"/><path fill="none" stroke="rgb(28,28,31)" paint-order="fill stroke markers" d=" M 274.5 423.5 L 277.5 423.5" stroke-opacity="1" stroke-miterlimit="10"/><path fill="none" stroke="rgb(28,28,31)" paint-order="fill stroke markers" d=" M 274.5 372.5 L 277.5 372.5" stroke-opacity="1" stroke-miterlimit="10"/><path fill="none" stroke="rgb(28,28,31)" paint-order="fill stroke markers" d=" M 274.5 321.5 L 277.5 321.5" stroke-opacity="1" stroke-miterlimit="10"/><path fill="none" stroke="rgb(28,28,31)" paint-order="fill stroke markers" d=" M 274.5 218.5 L 277.5 218.5" stroke-opacity="1" stroke-miterlimit="10"/><path fill="none" stroke="rgb(28,28,31)" paint-order="fill stroke markers" d=" M 274.5 167.5 L 277.5 167.5" stroke-opacity="1" stroke-miterlimit="10"/><path fill="none" stroke="rgb(28,28,31)" paint-order="fill stroke markers" d=" M 274.5 116.5 L 277.5 116.5" stroke-opacity="1" stroke-miterlimit="10"/><path fill="none" stroke="rgb(28,28,31)" paint-order="fill stroke markers" d=" M 274.5 65.5 L 277.5 65.5" stroke-opacity="1" stroke-miterlimit="10"/><path fill="none" stroke="rgb(28,28,31)" paint-order="fill stroke markers" d=" M 274.5 14.5 L 277.5 14.5" stroke-opacity="1" stroke-miterlimit="10"/><text fill="rgb(28,28,31)" stroke="none" font-family="geogebra-sans-serif, sans-serif" font-size="21px" font-style="normal" font-weight="normal" text-decoration="normal" x="233" y="535" text-anchor="start" dominant-baseline="alphabetic" fill-opacity="1">–10</text><text fill="rgb(28,28,31)" stroke="none" font-family="geogebra-sans-serif, sans-serif" font-size="21px" font-style="normal" font-weight="normal" text-decoration="normal" x="245" y="484" text-anchor="start" dominant-baseline="alphabetic" fill-opacity="1">–8</text><text fill="rgb(28,28,31)" stroke="none" font-family="geogebra-sans-serif, sans-serif" font-size="21px" font-style="normal" font-weight="normal" text-decoration="normal" x="245" y="433" text-anchor="start" dominant-baseline="alphabetic" fill-opacity="1">–6</text><text fill="rgb(28,28,31)" stroke="none" font-family="geogebra-sans-serif, sans-serif" font-size="21px" font-style="normal" font-weight="normal" text-decoration="normal" x="245" y="381" text-anchor="start" dominant-baseline="alphabetic" fill-opacity="1">–4</text><text fill="rgb(28,28,31)" stroke="none" font-family="geogebra-sans-serif, sans-serif" font-size="21px" font-style="normal" font-weight="normal" text-decoration="normal" x="245" y="330" text-anchor="start" dominant-baseline="alphabetic" fill-opacity="1">–2</text><text fill="rgb(28,28,31)" stroke="none" font-family="geogebra-sans-serif, sans-serif" font-size="21px" font-style="normal" font-weight="normal" text-decoration="normal" x="256" y="228" text-anchor="start" dominant-baseline="alphabetic" fill-opacity="1">2</text><text fill="rgb(28,28,31)" stroke="none" font-family="geogebra-sans-serif, sans-serif" font-size="21px" font-style="normal" font-weight="normal" text-decoration="normal" x="256" y="177" text-anchor="start" dominant-baseline="alphabetic" fill-opacity="1">4</text><text fill="rgb(28,28,31)" stroke="none" font-family="geogebra-sans-serif, sans-serif" font-size="21px" font-style="normal" font-weight="normal" text-decoration="normal" x="256" y="126" text-anchor="start" dominant-baseline="alphabetic" fill-opacity="1">6</text><text fill="rgb(28,28,31)" stroke="none" font-family="geogebra-sans-serif, sans-serif" font-size="21px" font-style="normal" font-weight="normal" text-decoration="normal" x="256" y="74" text-anchor="start" dominant-baseline="alphabetic" fill-opacity="1">8</text><text fill="rgb(28,28,31)" stroke="none" font-family="geogebra-sans-serif, sans-serif" font-size="21px" font-style="normal" font-weight="normal" text-decoration="normal" x="245" y="23" text-anchor="start" dominant-baseline="alphabetic" fill-opacity="1">10</text><text fill="rgb(28,28,31)" stroke="none" font-family="geogebra-sans-serif, sans-serif" font-size="21px" font-style="normal" font-weight="normal" text-decoration="normal" x="256" y="295" text-anchor="start" dominant-baseline="alphabetic" fill-opacity="1">0</text></g></g></svg>