<svg version="1.1" xmlns="http://www.w3.org/2000/svg" xmlns:xlink="http://www.w3.org/1999/xlink" width="604" height="524"><defs><clipPath id="JIBhsaHLWAya"><path fill="none" stroke="none" d=" M 0 0 L 604 0 L 604 524 L 0 524 L 0 0 Z"/></clipPath></defs><g transform="scale(1,1)" clip-path="url(#JIBhsaHLWAya)"><g><rect fill="rgb(255,255,255)" stroke="none" x="0" y="0" width="604" height="524" fill-opacity="1"/><path fill="none" stroke="rgb(180,179,186)" paint-order="fill stroke markers" d=" M 22.5 0.5 L 22.5 524.5 M 22.5 0.5 L 22.5 524.5 M 77.5 0.5 L 77.5 524.5 M 132.5 0.5 L 132.5 524.5 M 187.5 0.5 L 187.5 524.5 M 242.5 0.5 L 242.5 524.5 M 352.5 0.5 L 352.5 524.5 M 407.5 0.5 L 407.5 524.5 M 462.5 0.5 L 462.5 524.5 M 517.5 0.5 L 517.5 524.5 M 572.5 0.5 L 572.5 524.5" stroke-opacity="1" stroke-linecap="round" stroke-linejoin="round" stroke-miterlimit="10"/><path fill="none" stroke="rgb(180,179,186)" paint-order="fill stroke markers" d=" M 0.5 0.5 L 0.5 524.5 M 11.5 0.5 L 11.5 524.5 M 33.5 0.5 L 33.5 524.5 M 44.5 0.5 L 44.5 524.5 M 55.5 0.5 L 55.5 524.5 M 66.5 0.5 L 66.5 524.5 M 88.5 0.5 L 88.5 524.5 M 99.5 0.5 L 99.5 524.5 M 110.5 0.5 L 110.5 524.5 M 121.5 0.5 L 121.5 524.5 M 143.5 0.5 L 143.5 524.5 M 154.5 0.5 L 154.5 524.5 M 165.5 0.5 L 165.5 524.5 M 176.5 0.5 L 176.5 524.5 M 198.5 0.5 L 198.5 524.5 M 209.5 0.5 L 209.5 524.5 M 220.5 0.5 L 220.5 524.5 M 231.5 0.5 L 231.5 524.5 M 253.5 0.5 L 253.5 524.5 M 264.5 0.5 L 264.5 524.5 M 275.5 0.5 L 275.5 524.5 M 286.5 0.5 L 286.5 524.5 M 308.5 0.5 L 308.5 524.5 M 319.5 0.5 L 319.5 524.5 M 330.5 0.5 L 330.5 524.5 M 341.5 0.5 L 341.5 524.5 M 363.5 0.5 L 363.5 524.5 M 374.5 0.5 L 374.5 524.5 M 385.5 0.5 L 385.5 524.5 M 396.5 0.5 L 396.5 524.5 M 418.5 0.5 L 418.5 524.5 M 429.5 0.5 L 429.5 524.5 M 440.5 0.5 L 440.5 524.5 M 451.5 0.5 L 451.5 524.5 M 473.5 0.5 L 473.5 524.5 M 484.5 0.5 L 484.5 524.5 M 495.5 0.5 L 495.5 524.5 M 506.5 0.5 L 506.5 524.5 M 528.5 0.5 L 528.5 524.5 M 539.5 0.5 L 539.5 524.5 M 550.5 0.5 L 550.5 524.5 M 561.5 0.5 L 561.5 524.5 M 583.5 0.5 L 583.5 524.5 M 594.5 0.5 L 594.5 524.5" stroke-opacity="0.23529411764705882" stroke-linecap="round" stroke-linejoin="round" stroke-miterlimit="10"/><path fill="none" stroke="rgb(180,179,186)" paint-order="fill stroke markers" d=" M 0.5 12.5 L 604.5 12.5 M 0.5 12.5 L 604.5 12.5 M 0.5 67.5 L 604.5 67.5 M 0.5 122.5 L 604.5 122.5 M 0.5 177.5 L 604.5 177.5 M 0.5 232.5 L 604.5 232.5 M 0.5 342.5 L 604.5 342.5 M 0.5 397.5 L 604.5 397.5 M 0.5 452.5 L 604.5 452.5 M 0.5 507.5 L 604.5 507.5" stroke-opacity="1" stroke-linecap="round" stroke-linejoin="round" stroke-miterlimit="10"/><path fill="none" stroke="rgb(180,179,186)" paint-order="fill stroke markers" d=" M 0.5 1.5 L 604.5 1.5 M 0.5 1.5 L 604.5 1.5 M 0.5 23.5 L 604.5 23.5 M 0.5 34.5 L 604.5 34.5 M 0.5 45.5 L 604.5 45.5 M 0.5 56.5 L 604.5 56.5 M 0.5 78.5 L 604.5 78.5 M 0.5 89.5 L 604.5 89.5 M 0.5 100.5 L 604.5 100.5 M 0.5 111.5 L 604.5 111.5 M 0.5 133.5 L 604.5 133.5 M 0.5 144.5 L 604.5 144.5 M 0.5 155.5 L 604.5 155.5 M 0.5 166.5 L 604.5 166.5 M 0.5 188.5 L 604.5 188.5 M 0.5 199.5 L 604.5 199.5 M 0.5 210.5 L 604.5 210.5 M 0.5 221.5 L 604.5 221.5 M 0.5 243.5 L 604.5 243.5 M 0.5 254.5 L 604.5 254.5 M 0.5 265.5 L 604.5 265.5 M 0.5 276.5 L 604.5 276.5 M 0.5 298.5 L 604.5 298.5 M 0.5 309.5 L 604.5 309.5 M 0.5 320.5 L 604.5 320.5 M 0.5 331.5 L 604.5 331.5 M 0.5 353.5 L 604.5 353.5 M 0.5 364.5 L 604.5 364.5 M 0.5 375.5 L 604.5 375.5 M 0.5 386.5 L 604.5 386.5 M 0.5 408.5 L 604.5 408.5 M 0.5 419.5 L 604.5 419.5 M 0.5 430.5 L 604.5 430.5 M 0.5 441.5 L 604.5 441.5 M 0.5 463.5 L 604.5 463.5 M 0.5 474.5 L 604.5 474.5 M 0.5 485.5 L 604.5 485.5 M 0.5 496.5 L 604.5 496.5 M 0.5 518.5 L 604.5 518.5" stroke-opacity="0.23529411764705882" stroke-linecap="round" stroke-linejoin="round" stroke-miterlimit="10"/><path fill="none" stroke="rgb(28,28,31)" paint-order="fill stroke markers" d=" M 297.5 2.5 L 297.5 524.5" stroke-opacity="1" stroke-miterlimit="10"/><path fill="none" stroke="rgb(28,28,31)" paint-order="fill stroke markers" d=" M 297.5 1.5 L 293.5 5.5" stroke-opacity="1" stroke-miterlimit="10"/><path fill="none" stroke="rgb(28,28,31)" paint-order="fill stroke markers" d=" M 297.5 1.5 L 301.5 5.5" stroke-opacity="1" stroke-miterlimit="10"/><path fill="none" stroke="rgb(28,28,31)" paint-order="fill stroke markers" d=" M 0.5 287.5 L 602.5 287.5" stroke-opacity="1" stroke-miterlimit="10"/><path fill="none" stroke="rgb(28,28,31)" paint-order="fill stroke markers" d=" M 603.5 287.5 L 599.5 283.5" stroke-opacity="1" stroke-miterlimit="10"/><path fill="none" stroke="rgb(28,28,31)" paint-order="fill stroke markers" d=" M 603.5 287.5 L 599.5 291.5" stroke-opacity="1" stroke-miterlimit="10"/><text fill="rgb(28,28,31)" stroke="none" font-family="geogebra-sans-serif, sans-serif" font-size="12px" font-style="normal" font-weight="normal" text-decoration="normal" x="17" y="303" text-anchor="start" dominant-baseline="alphabetic" fill-opacity="1">–5</text><text fill="rgb(28,28,31)" stroke="none" font-family="geogebra-sans-serif, sans-serif" font-size="12px" font-style="normal" font-weight="normal" text-decoration="normal" x="72" y="303" text-anchor="start" dominant-baseline="alphabetic" fill-opacity="1">–4</text><text fill="rgb(28,28,31)" stroke="none" font-family="geogebra-sans-serif, sans-serif" font-size="12px" font-style="normal" font-weight="normal" text-decoration="normal" x="127" y="303" text-anchor="start" dominant-baseline="alphabetic" fill-opacity="1">–3</text><text fill="rgb(28,28,31)" stroke="none" font-family="geogebra-sans-serif, sans-serif" font-size="12px" font-style="normal" font-weight="normal" text-decoration="normal" x="182" y="303" text-anchor="start" dominant-baseline="alphabetic" fill-opacity="1">–2</text><text fill="rgb(28,28,31)" stroke="none" font-family="geogebra-sans-serif, sans-serif" font-size="12px" font-style="normal" font-weight="normal" text-decoration="normal" x="237" y="303" text-anchor="start" dominant-baseline="alphabetic" fill-opacity="1">–1</text><text fill="rgb(28,28,31)" stroke="none" font-family="geogebra-sans-serif, sans-serif" font-size="12px" font-style="normal" font-weight="normal" text-decoration="normal" x="350" y="303" text-anchor="start" dominant-baseline="alphabetic" fill-opacity="1">1</text><text fill="rgb(28,28,31)" stroke="none" font-family="geogebra-sans-serif, sans-serif" font-size="12px" font-style="normal" font-weight="normal" text-decoration="normal" x="405" y="303" text-anchor="start" dominant-baseline="alphabetic" fill-opacity="1">2</text><text fill="rgb(28,28,31)" stroke="none" font-family="geogebra-sans-serif, sans-serif" font-size="12px" font-style="normal" font-weight="normal" text-decoration="normal" x="460" y="303" text-anchor="start" dominant-baseline="alphabetic" fill-opacity="1">3</text><text fill="rgb(28,28,31)" stroke="none" font-family="geogebra-sans-serif, sans-serif" font-size="12px" font-style="normal" font-weight="normal" text-decoration="normal" x="515" y="303" text-anchor="start" dominant-baseline="alphabetic" fill-opacity="1">4</text><text fill="rgb(28,28,31)" stroke="none" font-family="geogebra-sans-serif, sans-serif" font-size="12px" font-style="normal" font-weight="normal" text-decoration="normal" x="570" y="303" text-anchor="start" dominant-baseline="alphabetic" fill-opacity="1">5</text><text fill="rgb(28,28,31)" stroke="none" font-family="geogebra-sans-serif, sans-serif" font-size="12px" font-style="normal" font-weight="normal" text-decoration="normal" x="277" y="512" text-anchor="start" dominant-baseline="alphabetic" fill-opacity="1">–4</text><text fill="rgb(28,28,31)" stroke="none" font-family="geogebra-sans-serif, sans-serif" font-size="12px" font-style="normal" font-weight="normal" text-decoration="normal" x="277" y="457" text-anchor="start" dominant-baseline="alphabetic" fill-opacity="1">–3</text><text fill="rgb(28,28,31)" stroke="none" font-family="geogebra-sans-serif, sans-serif" font-size="12px" font-style="normal" font-weight="normal" text-decoration="normal" x="277" y="402" text-anchor="start" dominant-baseline="alphabetic" fill-opacity="1">–2</text><text fill="rgb(28,28,31)" stroke="none" font-family="geogebra-sans-serif, sans-serif" font-size="12px" font-style="normal" font-weight="normal" text-decoration="normal" x="277" y="347" text-anchor="start" dominant-baseline="alphabetic" fill-opacity="1">–1</text><text fill="rgb(28,28,31)" stroke="none" font-family="geogebra-sans-serif, sans-serif" font-size="12px" font-style="normal" font-weight="normal" text-decoration="normal" x="283" y="237" text-anchor="start" dominant-baseline="alphabetic" fill-opacity="1">1</text><text fill="rgb(28,28,31)" stroke="none" font-family="geogebra-sans-serif, sans-serif" font-size="12px" font-style="normal" font-weight="normal" text-decoration="normal" x="283" y="182" text-anchor="start" dominant-baseline="alphabetic" fill-opacity="1">2</text><text fill="rgb(28,28,31)" stroke="none" font-family="geogebra-sans-serif, sans-serif" font-size="12px" font-style="normal" font-weight="normal" text-decoration="normal" x="283" y="127" text-anchor="start" dominant-baseline="alphabetic" fill-opacity="1">3</text><text fill="rgb(28,28,31)" stroke="none" font-family="geogebra-sans-serif, sans-serif" font-size="12px" font-style="normal" font-weight="normal" text-decoration="normal" x="283" y="72" text-anchor="start" dominant-baseline="alphabetic" fill-opacity="1">4</text><text fill="rgb(28,28,31)" stroke="none" font-family="geogebra-sans-serif, sans-serif" font-size="12px" font-style="normal" font-weight="normal" text-decoration="normal" x="283" y="17" text-anchor="start" dominant-baseline="alphabetic" fill-opacity="1">5</text><text fill="rgb(28,28,31)" stroke="none" font-family="geogebra-sans-serif, sans-serif" font-size="12px" font-style="normal" font-weight="normal" text-decoration="normal" x="283" y="303" text-anchor="start" dominant-baseline="alphabetic" fill-opacity="1">0</text><path fill="none" stroke="rgb(28,28,31)" paint-order="fill stroke markers" d=" M 196.30966666666706 333.3533333333334 L 236.43900000000036 534 M 272.3035029585802 257.35949704142024 L 195.62425634517803 -9.999999999999998 M 377.05257446808537 256.13436170212776 L 562.2963333333333 534 M 377.05257446808537 256.13436170212776 L 614 24.48607987220458 M 196.30966666666706 333.3533333333334 L -10 292.09139999999996 M 196.30966666666706 333.3533333333334 L 272.3035029585802 257.35949704142024 M 272.3035029585802 257.35949704142024 L 377.05257446808537 256.13436170212776" stroke-opacity="0.6980392156862745" stroke-linecap="round" stroke-linejoin="round" stroke-miterlimit="10" stroke-width="2.5"/><text fill="rgb(28,28,31)" stroke="none" font-family="geogebra-sans-serif, sans-serif" font-size="16px" font-style="normal" font-weight="normal" text-decoration="normal" x="551" y="516" text-anchor="start" dominant-baseline="alphabetic" fill-opacity="1">grafo1</text><path fill="rgb(21,101,192)" stroke="none" paint-order="stroke fill markers" d=" M 137.14300000000043 177.5200000000001 C 137.14300000000043 180.28142374915407 134.9044237491544 182.5200000000001 132.14300000000043 182.5200000000001 C 129.38157625084645 182.5200000000001 127.14300000000043 180.28142374915407 127.14300000000043 177.5200000000001 C 127.14300000000043 174.75857625084612 129.38157625084645 172.5200000000001 132.14300000000043 172.5200000000001 C 134.9044237491544 172.5200000000001 137.14300000000043 174.75857625084612 137.14300000000043 177.5200000000001 Z" fill-opacity="1"/><path fill="none" stroke="rgb(0,0,0)" paint-order="fill stroke markers" d=" M 137.14300000000043 177.5200000000001 C 137.14300000000043 180.28142374915407 134.9044237491544 182.5200000000001 132.14300000000043 182.5200000000001 C 129.38157625084645 182.5200000000001 127.14300000000043 180.28142374915407 127.14300000000043 177.5200000000001 C 127.14300000000043 174.75857625084612 129.38157625084645 172.5200000000001 132.14300000000043 172.5200000000001 C 134.9044237491544 172.5200000000001 137.14300000000043 174.75857625084612 137.14300000000043 177.5200000000001 Z" stroke-opacity="1" stroke-linecap="round" stroke-linejoin="round" stroke-miterlimit="10"/><text fill="rgb(21,101,192)" stroke="none" font-family="geogebra-sans-serif, sans-serif" font-size="16px" font-style="normal" font-weight="normal" text-decoration="normal" x="136" y="168" text-anchor="start" dominant-baseline="alphabetic" fill-opacity="1">A</text><path fill="rgb(21,101,192)" stroke="none" paint-order="stroke fill markers" d=" M 82.14300000000046 452.5200000000001 C 82.14300000000046 455.28142374915404 79.90442374915442 457.5200000000001 77.14300000000046 457.5200000000001 C 74.38157625084649 457.5200000000001 72.14300000000046 455.28142374915404 72.14300000000046 452.5200000000001 C 72.14300000000046 449.75857625084615 74.38157625084649 447.5200000000001 77.14300000000046 447.5200000000001 C 79.90442374915442 447.5200000000001 82.14300000000046 449.75857625084615 82.14300000000046 452.5200000000001 Z" fill-opacity="1"/><path fill="none" stroke="rgb(0,0,0)" paint-order="fill stroke markers" d=" M 82.14300000000046 452.5200000000001 C 82.14300000000046 455.28142374915404 79.90442374915442 457.5200000000001 77.14300000000046 457.5200000000001 C 74.38157625084649 457.5200000000001 72.14300000000046 455.28142374915404 72.14300000000046 452.5200000000001 C 72.14300000000046 449.75857625084615 74.38157625084649 447.5200000000001 77.14300000000046 447.5200000000001 C 79.90442374915442 447.5200000000001 82.14300000000046 449.75857625084615 82.14300000000046 452.5200000000001 Z" stroke-opacity="1" stroke-linecap="round" stroke-linejoin="round" stroke-miterlimit="10"/><text fill="rgb(21,101,192)" stroke="none" font-family="geogebra-sans-serif, sans-serif" font-size="16px" font-style="normal" font-weight="normal" text-decoration="normal" x="81" y="443" text-anchor="start" dominant-baseline="alphabetic" fill-opacity="1">B</text><path fill="rgb(21,101,192)" stroke="none" paint-order="stroke fill markers" d=" M 357.14300000000026 397.5200000000001 C 357.14300000000026 400.28142374915404 354.9044237491542 402.5200000000001 352.14300000000026 402.5200000000001 C 349.3815762508463 402.5200000000001 347.14300000000026 400.28142374915404 347.14300000000026 397.5200000000001 C 347.14300000000026 394.75857625084615 349.3815762508463 392.5200000000001 352.14300000000026 392.5200000000001 C 354.9044237491542 392.5200000000001 357.14300000000026 394.75857625084615 357.14300000000026 397.5200000000001 Z" fill-opacity="1"/><path fill="none" stroke="rgb(0,0,0)" paint-order="fill stroke markers" d=" M 357.14300000000026 397.5200000000001 C 357.14300000000026 400.28142374915404 354.9044237491542 402.5200000000001 352.14300000000026 402.5200000000001 C 349.3815762508463 402.5200000000001 347.14300000000026 400.28142374915404 347.14300000000026 397.5200000000001 C 347.14300000000026 394.75857625084615 349.3815762508463 392.5200000000001 352.14300000000026 392.5200000000001 C 354.9044237491542 392.5200000000001 357.14300000000026 394.75857625084615 357.14300000000026 397.5200000000001 Z" stroke-opacity="1" stroke-linecap="round" stroke-linejoin="round" stroke-miterlimit="10"/><text fill="rgb(21,101,192)" stroke="none" font-family="geogebra-sans-serif, sans-serif" font-size="16px" font-style="normal" font-weight="normal" text-decoration="normal" x="356" y="388" text-anchor="start" dominant-baseline="alphabetic" fill-opacity="1">C</text><path fill="rgb(21,101,192)" stroke="none" paint-order="stroke fill markers" d=" M 353.8430000000003 115.37000000000009 C 353.8430000000003 118.13142374915405 351.60442374915425 120.37000000000009 348.8430000000003 120.37000000000009 C 346.08157625084635 120.37000000000009 343.8430000000003 118.13142374915405 343.8430000000003 115.37000000000009 C 343.8430000000003 112.60857625084613 346.08157625084635 110.37000000000009 348.8430000000003 110.37000000000009 C 351.60442374915425 110.37000000000009 353.8430000000003 112.60857625084613 353.8430000000003 115.37000000000009 Z" fill-opacity="1"/><path fill="none" stroke="rgb(0,0,0)" paint-order="fill stroke markers" d=" M 353.8430000000003 115.37000000000009 C 353.8430000000003 118.13142374915405 351.60442374915425 120.37000000000009 348.8430000000003 120.37000000000009 C 346.08157625084635 120.37000000000009 343.8430000000003 118.13142374915405 343.8430000000003 115.37000000000009 C 343.8430000000003 112.60857625084613 346.08157625084635 110.37000000000009 348.8430000000003 110.37000000000009 C 351.60442374915425 110.37000000000009 353.8430000000003 112.60857625084613 353.8430000000003 115.37000000000009 Z" stroke-opacity="1" stroke-linecap="round" stroke-linejoin="round" stroke-miterlimit="10"/><text fill="rgb(21,101,192)" stroke="none" font-family="geogebra-sans-serif, sans-serif" font-size="16px" font-style="normal" font-weight="normal" text-decoration="normal" x="353" y="105" text-anchor="start" dominant-baseline="alphabetic" fill-opacity="1">D</text><path fill="rgb(64,64,64)" stroke="none" paint-order="stroke fill markers" d=" M 522.1430000000001 287.5200000000001 C 522.1430000000001 290.28142374915404 519.9044237491541 292.5200000000001 517.1430000000001 292.5200000000001 C 514.3815762508461 292.5200000000001 512.1430000000001 290.28142374915404 512.1430000000001 287.5200000000001 C 512.1430000000001 284.75857625084615 514.3815762508461 282.5200000000001 517.1430000000001 282.5200000000001 C 519.9044237491541 282.5200000000001 522.1430000000001 284.75857625084615 522.1430000000001 287.5200000000001 Z" fill-opacity="1"/><path fill="none" stroke="rgb(0,0,0)" paint-order="fill stroke markers" d=" M 522.1430000000001 287.5200000000001 C 522.1430000000001 290.28142374915404 519.9044237491541 292.5200000000001 517.1430000000001 292.5200000000001 C 514.3815762508461 292.5200000000001 512.1430000000001 290.28142374915404 512.1430000000001 287.5200000000001 C 512.1430000000001 284.75857625084615 514.3815762508461 282.5200000000001 517.1430000000001 282.5200000000001 C 519.9044237491541 282.5200000000001 522.1430000000001 284.75857625084615 522.1430000000001 287.5200000000001 Z" stroke-opacity="1" stroke-linecap="round" stroke-linejoin="round" stroke-miterlimit="10"/><text fill="rgb(64,64,64)" stroke="none" font-family="geogebra-sans-serif, sans-serif" font-size="16px" font-style="normal" font-weight="normal" text-decoration="normal" x="521" y="278" text-anchor="start" dominant-baseline="alphabetic" fill-opacity="1">E</text></g></g></svg>