<?xml version="1.0" encoding="utf-8"?>
<!DOCTYPE svg PUBLIC "-//W3C//DTD SVG 1.1//EN" "http://www.w3.org/Graphics/SVG/1.1/DTD/svg11.dtd">
<svg version="1.1" xmlns="http://www.w3.org/2000/svg" xmlns:xlink="http://www.w3.org/1999/xlink" x="0px" y="0px" viewBox="0 0 256 256" enable-background="new 0 0 256 256" xml:space="preserve">
<g><g><path fill="#000000" d="M10,1.9h16.2v223.4H10V1.9z"/><path fill="#000000" d="M10,1.9h150.6v16.2H10V1.9z"/><path fill="#000000" d="M10,209.1h72.8v16.2H10V209.1z"/><path fill="#000000" d="M184.5,41.9h16.2v32.4h-16.2V41.9z"/><path fill="#000000" d="M194.1,48.5l-4.9,4.9l-40.1-40.1l11.5-11.5l40.1,40.1L194.1,48.5z"/><path fill="#000000" d="M56.2,54.8h89V71h-89V54.8z"/><path fill="#000000" d="M57.8,107.8h37.1V124H57.8V107.8z"/><path fill="#000000" d="M57.8,161.2h27v16.2h-27V161.2z"/><path fill="#000000" d="M246,242.7l-40.1-40.1c9.7-11,15.5-25.5,15.5-41.3c0-34.6-28.1-62.7-62.7-62.7C124,98.5,96,126.6,96,161.2S124,224,158.7,224c13,0,25-3.9,35-10.7l40.9,40.8L246,242.7z M110.1,161.2c0-26.8,21.8-48.6,48.6-48.6c26.8,0,48.6,21.8,48.6,48.6s-21.8,48.6-48.6,48.6C131.9,209.8,110.1,188,110.1,161.2z"/></g></g>
</svg>